<?xml version="1.0" encoding="utf-8"?>
<!-- Generator: Adobe Illustrator 21.1.0, SVG Export Plug-In . SVG Version: 6.00 Build 0)  -->
<svg version="1.1" id="Layer_1" xmlns="http://www.w3.org/2000/svg" xmlns:xlink="http://www.w3.org/1999/xlink" x="0px" y="0px"
	 viewBox="0 0 602 782" style="enable-background:new 0 0 602 782;" xml:space="preserve">
<style type="text/css">
	.st0{fill:#FFFFFF;}
</style>
<path d="M302.1,44.5c-64.7,166.9-268.4,274.1-269,441.9c-0.3,79.2,60.2,143.6,134.5,143.6c45.6,0,86.2-27.5,110.5-64.6
	c11.6,6.9,13.1,32.9-9.4,93.2c-23.3,62.7-55.8,77.9-55.8,77.9h89.2h89.2c0,0-32.5-15.3-55.8-77.9c-21.9-58.8-21.1-85.1-10.3-92.7
	c24.1,38.4,64.8,64.1,111.4,64.1c74.3,0,134.5-64.4,134.5-143.6C570.4,318.7,365.9,208.7,302.1,44.5z"/>
<polygon class="st0" points="290.1,460.4 290.1,377.9 207.6,377.9 207.6,353.9 290.1,353.9 290.1,271.4 314,271.4 314,353.9 
	396.5,353.9 396.5,377.9 314,377.9 314,460.4 "/>
</svg>
