<?xml version="1.0" encoding="utf-8"?>
<!-- Generator: Adobe Illustrator 21.1.0, SVG Export Plug-In . SVG Version: 6.00 Build 0)  -->
<svg version="1.1" id="Layer_1" xmlns="http://www.w3.org/2000/svg" xmlns:xlink="http://www.w3.org/1999/xlink" x="0px" y="0px"
	 viewBox="0 0 314 314" style="enable-background:new 0 0 314 314;" xml:space="preserve">
<style type="text/css">
	.st0{fill:black;}
</style>
<g>
	<path class="st0" d="M156.7,90.1c-38.2,0-69.8,31.1-69.8,69.8s31.1,69.8,69.8,69.8s69.8-31.6,69.8-69.8S194.9,90.1,156.7,90.1z
		 M156.7,204.7c-24.6,0-44.7-20.2-44.7-44.7s20.2-44.7,44.7-44.7s44.7,20.2,44.7,44.7S181.2,204.7,156.7,204.7z"/>
	<circle class="st0" cx="229.3" cy="88.5" r="15.8"/>
	<path class="st0" d="M270.2,47.6c-14.2-14.7-34.4-22.4-57.3-22.4H100.5c-47.5,0-79.1,31.6-79.1,79.1v111.9
		c0,23.5,7.6,43.6,22.9,58.4c14.7,14.2,34.4,21.3,56.7,21.3h111.3c23.5,0,43.1-7.6,57.3-21.3c14.7-14.2,22.4-34.4,22.4-57.8V104.3
		C292,81.4,284.4,61.8,270.2,47.6z M268,216.7c0,16.9-6,30.6-15.8,39.8c-9.8,9.3-23.5,14.2-39.8,14.2H101c-16.4,0-30-4.9-39.8-14.2
		c-9.8-9.8-14.7-23.5-14.7-40.4V104.3c0-16.4,4.9-30,14.7-39.8c9.3-9.3,23.5-14.2,39.8-14.2h112.4c16.4,0,30,4.9,39.8,14.7
		c9.3,9.8,14.7,23.5,14.7,39.3V216.7L268,216.7z"/>
</g>
</svg>
