<?xml version="1.0" encoding="utf-8"?>
<!-- Generator: Adobe Illustrator 21.1.0, SVG Export Plug-In . SVG Version: 6.00 Build 0)  -->
<svg version="1.1" id="Layer_1" xmlns="http://www.w3.org/2000/svg" xmlns:xlink="http://www.w3.org/1999/xlink" x="0px" y="0px"
	 viewBox="0 0 617 769" style="enable-background:new 0 0 617 769;" xml:space="preserve">
<style type="text/css">
	.st0{fill:black;}
</style>
<path class="st0" d="M313.2,33.6c-64.7,166.9-268.4,274.1-269,441.9c-0.3,79.2,60.2,143.6,134.5,143.6c45.6,0,86.2-27.5,110.5-64.6
	c11.6,6.9,13.1,32.9-9.4,93.2c-23.3,62.7-55.8,77.9-55.8,77.9h89.2h89.2c0,0-32.5-15.3-55.8-77.9c-21.9-58.8-21.1-85.1-10.3-92.7
	c24.1,38.4,64.8,64.1,111.4,64.1c74.3,0,134.5-64.4,134.5-143.6C581.6,307.8,377,197.8,313.2,33.6z M300.8,475.3H175.9v-6.8h22.4
	c4.3,0.2,7.3-0.7,8.8-2.7c1.5-2,2.3-6.9,2.3-14.9V343.6c0-0.4,0-0.8,0-1.1c0.2-0.8,0.2-1.8,0.1-3.3c-0.1-1.4-0.2-2.8-0.4-4.1
	c-0.6-2.3-1.6-4.3-3.1-6.2c-1.5-1.9-4.1-2.8-7.6-2.8l-22.4-0.3v-6.5H196c9.1,0.2,17.5-2.5,25.3-8.1c7.8-5.6,14-11.7,18.5-18.5
	c1.1-1.5,2.1-3,3-4.4c0.8-1.4,1.6-2.9,2.1-4.4l20.1-0.3v169.3c0,4.7,1,8.5,3.1,11.5c2.1,2.9,4.7,4.4,7.9,4.4l24.6-0.3V475.3z
	 M450.3,426.6c-0.6,17.2-7.8,29.7-21.7,37.5c-13.9,7.8-29,12.5-45.4,14c-2.6,0.4-5.3,0.6-8.1,0.7c-2.7,0.1-5.4,0.1-8.1,0.1
	c-10,0-19.2-0.7-27.6-2.1c-8.4-1.4-14.6-3.3-18.5-5.8c-6.2-3.6-11.1-7.4-14.7-11.5c-3.6-4.1-6.2-8.3-7.9-12.6
	c-0.9-2.3-1.6-4.5-2-6.8c-0.4-2.3-0.6-4.5-0.6-6.8c-0.2-5.3,0.8-9.9,2.8-14c2.1-4.1,4.3-6.8,6.8-8.3c3.8-2.1,7.4-3.6,11-4.5
	c3.6-0.9,6.9-1.4,9.9-1.4c8.3,0,14.9,2.6,19.7,7.9c4.8,5.3,7.2,11.2,7.2,17.8c0,0.2,0,0.4,0,0.6c0,0.2,0,0.5,0,0.8
	c-0.2,4.7-2,9.3-5.4,13.7c-3.4,4.4-8.6,7.6-15.6,9.5c-1.9,0.6-3.4,1.4-4.4,2.5c-1,1.1-1.6,2.5-1.6,4c0,0.4,0,0.8,0.1,1.1
	c0.1,0.4,0.2,0.8,0.4,1.1c0.4,0.8,1,1.5,2,2.3c0.9,0.8,2.1,1.5,3.4,2.3c2.8,1.3,6.1,2.5,9.9,3.5c3.8,1,7.7,1.6,11.6,1.6
	c0.6,0,1.1,0,1.7,0c0.6,0,1,0,1.4,0c8.1-0.8,15.5-4.2,22.2-10.3c6.7-6.1,10.4-16.9,11.2-32.4c0-0.6,0-1.2,0-1.8c0-0.7,0-1.4,0-2.1
	c0-1.5,0-3.1,0-4.8c0-1.7,0-3.4,0-5.1c-0.2-9.6-2-18.4-5.4-26.5c-3.4-8-11.3-12.4-23.8-13.2l-33.4-0.3v-6.8h33.4
	c11.1,0.2,18.4-3.4,21.8-10.6c3.4-7.3,5.1-17,5.1-29.3c0-14.9-2.9-25.6-8.6-32c-5.8-6.4-12.1-10.2-19.1-11.3c-0.9-0.2-1.9-0.3-3-0.4
	c-1-0.1-2.1-0.1-3.3-0.1c-4.4,0-8.3,0.6-11.9,1.8c-3.6,1.2-6.1,2.6-7.6,4.1c-0.9,1.1-1.7,2.1-2.3,3c-0.6,0.8-0.9,1.7-0.9,2.4
	c0,1.7,0.9,3.2,2.8,4.5c1.9,1.3,4.2,2.5,6.8,3.7c0.6,0.4,1.2,0.7,2,1c0.8,0.3,1.5,0.6,2.3,1c3.2,1.3,6.1,2.9,8.8,4.7
	c2.6,1.8,4.2,4,4.8,6.6c0.4,1.3,0.7,2.7,1,4c0.3,1.3,0.4,2.5,0.4,3.7c0,7.2-3,12.7-8.9,16.6c-5.9,3.9-12.4,5.9-19.4,6.1
	c-0.2,0-0.3,0-0.4,0c-0.1,0-0.2,0-0.4,0c-7,0-13.4-1.9-19.3-5.8c-5.8-3.9-8.8-9.9-8.8-18c-0.4-16.2,5.9-28.1,18.7-35.5
	c12.8-7.4,27.5-11.2,43.9-11.2c1.1,0,2.2,0,3.3,0c1,0,2.1,0.1,3.3,0.3c16,0.8,30.9,4.7,44.5,11.8c13.6,7.1,21.1,16.5,22.6,28.2
	c0.2,1.5,0.3,3,0.4,4.4c0.1,1.4,0.1,2.9,0.1,4.4c0,14.2-3.4,24.3-10,30.6c-6.7,6.2-14,10.3-21.9,12.2c-1.9,0.6-3.8,1-5.7,1.3
	c-1.9,0.3-3.7,0.5-5.4,0.7c1.9,1,5.3,2.2,10.3,3.8c5,1.6,10.2,3.8,15.7,6.6c7.2,3.8,13.7,9.1,19.5,15.9
	C448.3,406.2,450.9,415.2,450.3,426.6z"/>
</svg>
